# xmcd
#
# Track frame offsets:
# 150
# 22951
# 37422
# 50278
# 69032
# 84879
# 100271
# 117136
# 131929
# 150158
# 175499
# 193087
# 210041
# 225484
# 246777
# 267019
#
# Disc length: 3768 seconds
#
#
# Revision: 0
# Processed by: cddbd v1.4PL0 Copyright (c) Steve Scherf et al.
# Submitted via: FreeRIP 2.52 
#
DISCID=c40eb610
DTITLE=Roger Ridley - Taking You Back
DYEAR=1900
DGENRE=Blues
TTITLE0=Respect
TTITLE1=Bring it on Home
TTITLE2=My Girl
TTITLE3=Tears on My Pillow
TTITLE4=These  Arms of Mine
TTITLE5=Steal Away
TTITLE6=Tenderness
TTITLE7=Broadway
TTITLE8=Wonderful World
TTITLE9=Stand by Me
TTITLE10=Dock of the Bay
TTITLE11=Just Imagination
TTITLE12=Ain't no Sunshine
TTITLE13=Dreams To Renember
TTITLE14=Bonus 1
TTITLE15=bonus 2
EXTD=
EXTT0=
EXTT1=
EXTT2=
EXTT3=
EXTT4=
EXTT5=
EXTT6=
EXTT7=
EXTT8=
EXTT9=
EXTT10=
EXTT11=
EXTT12=
EXTT13=
EXTT14=
EXTT15=
PLAYORDER=
